<?xml version="1.0" standalone="no"?>
<!DOCTYPE svg PUBLIC "-//W3C//DTD SVG 20010904//EN"
 "http://www.w3.org/TR/2001/REC-SVG-20010904/DTD/svg10.dtd">
<svg version="1.0" xmlns="http://www.w3.org/2000/svg"
 width="3751.000000pt" height="3751.000000pt" viewBox="0 0 3751.000000 3751.000000"
 preserveAspectRatio="xMidYMid meet">
<metadata>
Created by potrace 1.11, written by Peter Selinger 2001-2013
</metadata>
<g transform="translate(0.000000,3751.000000) scale(0.100000,-0.100000)"
fill="#000000" stroke="none">
<path d="M14485 29831 c-64 -37 -155 -133 -188 -197 -70 -140 -71 -147 -72
-2589 -2 -2360 -10 -2857 -55 -3695 -36 -654 -137 -2082 -155 -2175 -8 -44
-34 -143 -59 -220 -47 -150 -48 -152 -121 -154 -29 -1 -38 9 -132 147 -55 81
-115 176 -133 212 -44 88 -369 863 -545 1300 -191 476 -305 789 -731 2015
-424 1219 -605 2026 -644 2875 -12 248 -23 325 -64 434 -66 175 -144 280 -248
337 -59 32 -69 34 -158 34 -84 0 -102 -3 -154 -29 -149 -73 -325 -337 -425
-641 -46 -140 -64 -236 -86 -470 -38 -405 -72 -499 -197 -556 -52 -24 -59 -24
-338 -23 -347 1 -613 20 -1530 109 -352 35 -648 43 -750 21 -182 -39 -278
-130 -310 -294 -21 -104 -8 -240 54 -547 70 -351 89 -500 84 -631 -7 -167 -54
-234 -168 -242 -77 -6 -136 6 -345 68 -709 211 -1558 361 -2455 435 -342 28
-619 76 -723 125 -67 31 -108 80 -114 133 -13 110 57 248 354 700 546 831 864
1249 1264 1663 235 243 309 376 309 555 0 262 -205 409 -625 448 -225 22
-1797 82 -2175 84 -316 1 -444 -19 -999 -154 -533 -130 -821 -236 -912 -336
-64 -70 -109 -170 -109 -243 0 -77 78 -185 183 -255 93 -61 148 -68 502 -60
343 8 400 2 478 -52 50 -35 93 -125 107 -228 16 -107 23 -1448 10 -1745 -16
-364 -45 -570 -125 -884 -41 -163 -45 -190 -45 -298 0 -138 43 -523 94 -843
75 -468 77 -535 57 -1780 -17 -1011 -11 -1792 13 -1915 45 -229 87 -339 156
-408 57 -57 103 -77 175 -77 82 1 143 32 231 119 81 81 114 143 144 268 41
171 43 279 44 2038 l1 1685 22 65 c40 118 129 190 275 225 133 31 830 120
1213 155 677 60 1393 54 1750 -17 263 -51 327 -148 232 -348 -55 -116 -115
-197 -791 -1085 -677 -888 -1843 -2398 -1944 -2515 -248 -289 -341 -455 -342
-611 0 -59 5 -81 28 -125 65 -125 193 -168 344 -115 103 37 201 108 349 256
154 154 195 201 859 990 907 1078 1020 1206 1173 1328 149 118 275 174 747
333 338 114 416 132 483 110 49 -16 110 -86 136 -155 47 -127 111 -553 111
-742 0 -142 -35 -243 -116 -333 -59 -66 -128 -110 -257 -164 -133 -56 -190
-92 -256 -162 -128 -136 -160 -329 -87 -530 66 -183 202 -288 409 -315 99 -13
199 -4 391 36 317 66 509 123 1601 469 1087 345 1153 365 1233 365 89 0 138
-41 274 -230 130 -180 242 -250 378 -237 123 11 223 93 296 242 104 215 129
407 154 1180 13 409 22 501 61 692 35 167 27 155 119 168 l45 6 97 -128 c164
-217 395 -629 767 -1373 559 -1116 1067 -2053 1874 -3455 434 -755 1590 -2730
1641 -2805 64 -93 161 -192 218 -221 96 -49 229 -64 294 -33 58 28 116 126
135 229 16 89 -36 288 -125 480 -84 180 -778 1396 -1076 1885 -213 350 -226
373 -284 488 -105 210 -192 460 -235 674 -52 258 -52 238 -61 1498 -5 652 -14
1734 -20 2405 -20 2258 -30 3972 -30 5367 0 943 -4 1420 -11 1490 -14 131 -61
317 -93 373 -29 48 -78 91 -150 129 -68 36 -135 35 -201 -3z m-10850 -1878
c77 -14 140 -26 141 -26 4 -7 -27 -284 -37 -331 -8 -38 -63 -162 -154 -345
-126 -254 -395 -763 -431 -816 -23 -33 -229 -273 -232 -270 -2 1 -19 94 -39
206 l-37 204 0 505 c-1 533 3 592 46 692 27 63 100 130 170 156 55 21 183 48
263 55 65 7 161 -3 310 -30z m6820 -2395 c133 -33 225 -144 293 -359 74 -229
74 -238 79 -824 l5 -530 -41 -445 c-124 -1340 -137 -1428 -228 -1511 -68 -64
-124 -75 -448 -89 -271 -11 -294 -13 -895 -76 -714 -74 -706 -74 -800 -33 -85
38 -131 100 -149 205 -5 32 -15 156 -21 276 -25 489 40 771 234 1014 35 43
101 110 147 148 99 81 122 105 202 211 68 90 129 211 152 300 30 119 14 263
-43 369 -42 79 -163 193 -260 246 -205 111 -242 134 -290 176 -66 58 -108 123
-134 207 -28 94 -22 281 12 372 30 79 95 145 171 173 124 46 1092 144 1819
185 68 4 142 -2 195 -15z"/>
<path d="M34057 27100 c-123 -31 -193 -114 -222 -264 -36 -185 -43 -286 -115
-1551 -92 -1601 -119 -2031 -135 -2135 -9 -52 -35 -162 -59 -245 l-43 -150
-40 -3 c-50 -4 -45 -8 -233 206 -175 200 -225 250 -298 298 -119 80 -252 95
-358 41 -92 -47 -186 -172 -234 -313 -11 -31 -40 -158 -64 -283 -158 -796
-210 -1427 -236 -2861 -5 -305 -12 -614 -15 -686 -19 -422 120 -718 370 -789
131 -38 293 3 388 98 57 57 112 170 134 277 26 125 24 628 -6 1180 -13 234
-24 538 -25 675 -1 221 2 267 23 402 l25 153 49 16 c26 9 50 14 51 13 2 -2 52
-58 111 -124 108 -120 192 -228 315 -406 85 -123 197 -235 279 -278 152 -80
358 -35 441 96 44 69 58 126 81 328 27 241 59 437 123 760 30 149 61 315 68
370 10 80 13 557 13 2435 0 2209 -1 2340 -18 2423 -34 170 -83 254 -170 296
-50 24 -147 34 -200 21z"/>
<path d="M19305 26984 c-642 -17 -994 -28 -1485 -44 -316 -11 -773 -24 -1015
-30 -472 -12 -586 -22 -779 -70 -204 -51 -286 -93 -357 -182 -69 -87 -104
-171 -104 -249 0 -61 3 -71 40 -125 48 -69 137 -137 208 -160 80 -25 324 -29
567 -10 113 9 502 44 865 77 545 50 687 60 815 57 147 -3 158 -4 213 -31 38
-19 66 -41 81 -65 42 -66 49 -104 44 -256 -4 -112 -22 -244 -87 -646 -343
-2111 -856 -5171 -881 -5252 -35 -112 -125 -348 -133 -348 -12 0 -236 201
-302 272 -56 59 -157 199 -413 569 -333 481 -497 615 -694 564 -169 -43 -279
-195 -265 -364 10 -123 90 -339 222 -601 45 -91 189 -367 320 -615 854 -1619
765 -1445 884 -1730 44 -104 78 -191 77 -193 -5 -4 -340 -100 -450 -128 -195
-50 -290 -113 -341 -226 -53 -117 -33 -284 50 -423 79 -131 174 -200 345 -249
225 -64 381 -73 946 -55 575 18 934 18 994 0 63 -19 123 -82 144 -151 23 -78
34 -288 41 -800 13 -999 26 -1662 36 -1790 18 -244 58 -360 158 -461 70 -69
146 -110 220 -116 48 -4 64 -1 110 24 94 49 146 149 182 347 23 131 33 481 49
1676 9 782 13 847 54 945 34 80 113 138 232 169 125 32 533 69 1724 156 1121
82 1261 98 1416 171 123 57 175 135 182 271 4 76 1 92 -20 140 -58 124 -152
176 -393 217 -169 29 -341 45 -895 86 -1281 93 -1776 135 -1903 160 -119 24
-233 68 -457 175 -113 55 -229 104 -259 111 -115 24 -178 -5 -326 -156 -90
-91 -124 -118 -185 -148 -133 -66 -264 -81 -455 -52 -289 44 -365 92 -384 241
-5 38 -7 72 -5 75 2 3 8 177 14 387 5 210 15 428 20 484 29 283 521 3212 562
3338 30 95 51 131 101 177 56 52 127 71 208 56 69 -13 617 -172 735 -214 234
-82 342 -174 383 -324 27 -101 32 -227 41 -1025 6 -465 15 -900 20 -968 18
-231 55 -339 147 -430 67 -67 132 -102 189 -102 83 0 215 93 267 188 65 120
81 258 97 857 16 590 30 736 81 854 25 60 82 113 138 129 50 16 178 15 266 -2
191 -35 934 -191 1030 -216 468 -122 608 -264 1200 -1215 414 -664 579 -877
748 -960 132 -65 240 -58 330 24 58 52 77 100 77 197 0 98 -23 182 -84 304
-41 82 -79 145 -311 520 -133 214 -165 295 -165 420 0 104 16 169 74 303 117
269 119 461 6 636 -94 146 -320 316 -606 457 -241 119 -397 227 -577 403 -129
125 -219 236 -553 681 -314 418 -530 699 -948 1234 -445 569 -667 739 -946
724 -336 -19 -537 -336 -582 -923 -11 -136 -9 -174 11 -399 25 -262 25 -447 1
-516 -53 -150 -140 -155 -622 -36 -366 90 -409 105 -464 160 -65 64 -76 131
-50 281 61 342 562 2554 622 2747 71 228 171 316 383 337 50 6 244 6 466 1
209 -5 612 -14 895 -20 1708 -35 2402 -92 5505 -454 1427 -167 1607 -186 1835
-197 223 -10 334 -3 388 25 61 31 156 112 183 155 51 79 33 168 -53 266 -62
70 -202 134 -374 169 -151 32 -1196 181 -1539 221 -164 18 -2319 223 -2845
270 -1250 110 -2049 164 -3085 206 -244 9 -1611 19 -1850 13z"/>
<path d="M28106 25359 c-66 -16 -158 -65 -246 -131 -231 -172 -399 -411 -467
-666 -23 -85 -26 -117 -27 -262 -1 -149 2 -174 26 -260 36 -128 71 -202 167
-350 176 -270 277 -537 330 -871 22 -139 41 -345 41 -450 0 -38 7 -115 15
-172 20 -130 21 -245 2 -288 -33 -77 -122 -131 -217 -132 -100 0 -184 66 -270
213 -109 189 -927 1506 -1055 1700 -184 279 -376 406 -643 427 -168 13 -329
-45 -434 -155 -98 -103 -138 -208 -138 -367 0 -139 24 -226 114 -415 131 -274
166 -426 173 -750 4 -185 -3 -322 -46 -970 -97 -1442 -141 -2198 -141 -2415 0
-246 30 -504 71 -607 43 -111 127 -201 238 -256 72 -36 79 -37 181 -37 99 0
109 2 172 33 115 57 205 177 247 332 11 41 28 131 38 200 22 153 23 569 3
1370 -7 289 -14 710 -14 935 l-1 410 27 57 c25 55 108 148 131 148 21 0 155
-111 243 -202 187 -193 306 -367 709 -1028 258 -425 378 -571 528 -645 68 -33
87 -38 150 -39 63 0 83 4 139 32 77 38 130 92 167 171 26 55 26 58 25 276 -1
121 -9 306 -18 410 -9 105 -19 265 -23 356 -5 151 -4 172 15 236 12 38 31 82
44 98 20 26 24 27 83 22 131 -12 253 -87 329 -201 53 -81 586 -1072 931 -1731
218 -418 224 -429 298 -537 85 -126 196 -227 310 -283 51 -24 127 -54 170 -65
150 -39 269 -120 282 -192 40 -233 69 -641 62 -863 -7 -216 -17 -253 -86 -318
-60 -56 -124 -80 -302 -112 -156 -28 -184 -38 -246 -83 -158 -116 -173 -345
-32 -477 61 -57 127 -87 251 -113 122 -26 176 -52 232 -112 34 -37 50 -65 67
-121 l22 -73 -14 -861 c-17 -1018 -17 -1404 -1 -1580 49 -534 53 -596 62
-1105 6 -289 14 -1195 20 -2015 9 -1561 12 -1657 56 -1830 39 -158 116 -238
257 -267 179 -38 315 94 363 352 21 110 32 559 49 1935 26 2045 35 2494 56
2623 21 138 79 226 182 278 159 81 556 139 942 138 609 -2 830 -63 2522 -699
840 -316 984 -369 1169 -424 94 -28 174 -51 177 -51 10 0 73 208 87 285 7 39
11 106 9 150 -7 132 -59 210 -202 303 -59 38 -948 481 -2242 1117 -126 62
-314 161 -417 220 l-188 107 0 62 0 61 153 92 c83 51 177 103 208 117 96 42
963 310 1895 585 280 83 535 160 565 173 144 59 207 128 230 259 17 93 6 453
-15 532 -19 71 -52 121 -100 153 -79 54 -155 69 -606 119 -693 76 -1315 128
-2145 180 -1567 98 -1897 130 -2058 202 -115 52 -173 148 -198 333 -8 62 -14
836 -19 2815 -8 2763 -9 2831 -45 3014 -32 163 -128 241 -278 228 -101 -9
-174 -70 -212 -176 -46 -132 -46 -139 -55 -2201 -5 -1084 -13 -1979 -18 -2021
-8 -66 -19 -94 -72 -194 -34 -64 -66 -113 -70 -108 -10 10 -244 516 -299 646
-47 111 -209 524 -708 1812 -190 490 -430 1108 -535 1375 -104 267 -212 550
-239 629 -128 375 -199 700 -234 1071 -26 266 -62 403 -160 605 -66 134 -129
208 -217 255 -56 31 -72 34 -153 37 -49 1 -107 -2 -129 -8z m5509 -9265 c88
-14 161 -26 162 -28 2 -2 -50 -58 -114 -124 -115 -119 -124 -126 -368 -278
-428 -268 -1040 -641 -1104 -674 -100 -50 -234 -91 -304 -92 -120 -2 -180 55
-214 201 -14 61 -17 126 -18 336 0 246 1 264 23 327 54 156 177 228 467 272
290 45 1057 100 1235 90 41 -3 147 -16 235 -30z"/>
<path d="M26765 17324 c-110 -7 -388 -35 -595 -59 -348 -41 -537 -56 -753 -60
l-208 -3 -50 -32 c-52 -34 -105 -92 -133 -147 -52 -102 33 -323 154 -401 97
-63 257 -118 460 -157 247 -48 392 -100 469 -170 56 -51 107 -158 131 -275 28
-139 64 -630 105 -1431 12 -236 13 -337 5 -440 -18 -243 -16 -231 -67 -264
-30 -19 -50 -25 -58 -19 -294 217 -500 279 -1065 319 -124 9 -344 29 -490 45
-146 16 -310 32 -365 35 -234 15 -383 53 -555 141 -188 96 -327 218 -595 524
-212 243 -968 981 -1104 1078 -121 88 -335 171 -462 179 -144 10 -242 -34
-311 -141 -53 -82 -72 -155 -108 -406 -65 -459 -208 -1256 -240 -1342 -58
-155 -170 -243 -340 -268 -179 -26 -218 -34 -278 -56 -130 -48 -223 -135 -259
-239 -11 -33 -14 -70 -11 -128 3 -69 9 -92 38 -146 60 -113 178 -213 290 -246
100 -30 137 -46 184 -76 99 -66 146 -175 146 -338 0 -156 14 -215 68 -296 68
-101 170 -201 222 -216 76 -23 162 15 307 135 75 62 103 112 137 240 53 201
137 316 278 380 95 44 136 52 358 76 102 11 282 31 401 44 532 61 862 54 1171
-24 51 -14 110 -20 178 -20 56 0 487 36 958 79 1206 112 1128 107 1289 92 76
-7 139 -14 140 -14 2 -3 -123 -416 -167 -554 -61 -187 -73 -252 -74 -398 0
-95 5 -148 18 -195 23 -85 76 -193 126 -255 103 -127 136 -176 176 -260 50
-102 80 -209 93 -334 6 -47 13 -718 16 -1491 3 -773 10 -1471 16 -1553 23
-355 73 -491 203 -560 59 -31 194 -31 251 0 73 39 121 108 144 208 46 199 66
1113 58 2670 -6 1048 -5 1072 47 1222 55 160 146 293 279 405 38 31 155 115
261 186 171 114 241 153 597 330 507 251 1025 502 1207 585 200 92 295 150
383 237 84 83 124 153 138 241 23 142 -57 301 -188 373 -114 61 -259 69 -565
31 -109 -14 -220 -25 -245 -25 -55 0 -341 42 -341 50 0 12 200 322 247 383 26
34 137 169 245 300 326 392 409 506 484 660 83 173 104 327 65 479 -48 187
-167 341 -418 543 -194 155 -373 271 -583 375 -258 129 -505 207 -805 255 -88
14 -250 43 -360 65 -110 22 -245 46 -300 55 -103 16 -343 26 -450 19z m1091
-1234 c255 -21 502 -69 599 -116 99 -49 157 -143 140 -231 -15 -86 -47 -135
-354 -558 -194 -268 -887 -1193 -919 -1228 -22 -23 -132 -67 -168 -67 -10 0
-57 168 -75 265 -17 92 -17 1505 0 1610 43 262 151 329 537 334 61 0 169 -4
240 -9z"/>
</g>
</svg>
