<svg id="Layer_1" data-name="Layer 1" xmlns="http://www.w3.org/2000/svg" viewBox="0 0 860.48 533.1"><defs><style>.cls-1{fill:#fff;}</style></defs><title>name</title><path class="cls-1" d="M294.27,190.36c-.63,3.39-1.6,6.76-1.81,10.17-.53,8.65-.46,17.33-1.15,26a36,36,0,0,1-3,12.52c-3.61,7.53-10.82,7.71-15.61.87-5.09-7.25-5.15-7.44-13.52-4.87-15.29,4.68-30.47,9.71-45.76,14.38a164.15,164.15,0,0,1-19.36,4.87c-8.4,1.48-14.14-1.78-16-8.26-2-6.81.62-12.77,8.54-15.69,7.39-2.73,9.69-7.51,8.88-14.61-.54-4.63-.91-9.34-2.13-13.8-1.43-5.23-4.17-6.29-9-4.56-6.53,2.31-13.32,4.06-19.5,7a35.12,35.12,0,0,0-10.61,8.69c-11.81,13.58-23.26,27.46-34.9,41.19-2.8,3.3-5.66,6.58-8.73,9.62-6.14,6.09-11.25,7.46-14.69,4.21-3.17-3-2.47-7.87,2.34-14.37,2.18-2.94,4.76-5.57,7-8.47,19.7-25.62,39.57-51.11,59-77,7.95-10.62,6.24-13.76-7.19-15-21.07-1.95-41.95.57-62.75,3.49C86,158,84,160.43,83.9,168.76c-.17,14.66.14,29.33.18,44,0,10.66.07,21.33-.17,32-.1,4-.31,8.19-1.79,11.75-1.1,2.66-4,5.59-6.67,6.32-4,1.11-6.91-2.29-8-5.93a42.21,42.21,0,0,1-1.9-11.75c-.16-13,0-26,.15-39,.09-10.33.69-20.68.28-31-.29-7.23-2.12-14.38-2.85-21.6-.55-5.54-1.84-11.56-.33-16.62,3.12-10.46,3.69-20.93,3.58-31.62-.1-10,.15-20-.14-30-.26-8.64-2.39-10.3-11.12-10.06-4.31.12-8.82.85-12.88-.17a10.74,10.74,0,0,1-6.6-6.21c-.63-2.06,1.24-6.11,3.24-7.52,3.41-2.39,7.7-3.73,11.79-4.89,7-2,14.1-3.69,21.23-5.15A52.59,52.59,0,0,1,83.72,40.2q24.48.67,49,1.84a40,40,0,0,1,10.81,1.67c7.58,2.53,9.81,9,5.79,15.95a27.14,27.14,0,0,1-4.35,5.45C130.69,79.39,120,96.29,109,113c-.55.83-1.07,1.69-1.55,2.57-4.52,8.2-3.54,10.51,5.37,12.19a91.6,91.6,0,0,0,9.9,1.34c21.67,1.67,43,5,63.84,11.42,8,2.45,10.35.4,9.63-8.24-.48-5.62-1.86-11.17-2.93-16.72C191,104,195,99.22,206.91,99.85c9.65.5,19.25,1.77,28.88,2.52,7.31.57,14.64,1.15,22,1.18,7.06,0,8.66-1.73,9.6-8.71.72-5.28.7-10.78,2.29-15.77a39.66,39.66,0,0,1,7.43-13.85c4.62-5.29,11.6-4.07,14.92,2.16a24.09,24.09,0,0,1,3,10.44c.55,35.12,13.83,67.05,25,99.44,6,17.3,13.35,34.13,20.38,51.05,1.55,3.73,4.32,6.95,6.53,10.4l2.53-.34c1-3.6,2.58-7.15,2.83-10.8,1.65-24.59,3.76-49.19,4.3-73.82.75-34.65.25-69.32.32-104,0-5.33.08-10.67.41-16,.16-2.62.32-5.63,1.66-7.7,1.45-2.25,4.25-4.93,6.52-5s5.8,2.49,6.59,4.68a41.55,41.55,0,0,1,2.09,13.66c.17,29.67,0,59.33.13,89,.3,50,.95,100,1.08,150a66.23,66.23,0,0,0,10.37,35.87c9.66,15.57,18.61,31.58,27.58,47.56a40.65,40.65,0,0,1,4.81,13c.39,2.34-1.32,6.34-3.27,7.4s-6,.17-8-1.35c-2.8-2.11-4.9-5.41-6.71-8.54-29.47-50.7-59.82-100.92-85.58-153.69-3.5-7.18-7.55-14.11-11.55-21a86.65,86.65,0,0,0-5.64-7.8Zm-18.85-23.82c0-9,.12-16.66-.07-24.3A33.42,33.42,0,0,0,274,134.4c-2-7.39-4.82-10.71-11.42-10.38-13.92.7-27.84,2-41.67,3.79-5.83.74-7.5,4-7.63,9.91-.15,6.24,3.2,9.36,8.61,11.92,10.82,5.12,12.65,14.13,5.38,23.51a19,19,0,0,1-3.39,3.64c-12,9.07-10.8,21.93-9.94,34.63.29,4.3,3,6.63,7.34,6.49,4-.14,7.94-.74,11.91-1.11,8.6-.8,17.19-2,25.81-2.25,10.61-.27,11.71-.68,12.94-11.63C273.32,190.37,274.35,177.77,275.42,166.54ZM85.65,110.08c3.17-3.86,5.06-5.56,6.21-7.66,4.42-8.16,8.88-16.32,12.75-24.75,1.38-3,1.13-6.76,1.62-10.17-3.49-.48-7-1.6-10.47-1.3-9.85.87-11.8,3.18-12,13.21-.15,6.3-.12,12.61.13,18.9C84,101.43,84.78,104.52,85.65,110.08Z" transform="translate(-35.48 -21.08)"/><path class="cls-1" d="M822.55,384.81c3.69,2.06,7.3,4.26,11.08,6.14,17.91,8.9,35.89,17.64,53.78,26.58,9.11,4.55,10.14,7.86,6,19.63-3.59-1.12-7.28-2.12-10.86-3.43-18.74-6.88-37.31-14.26-56.22-20.64a81.85,81.85,0,0,0-40.5-3c-10.48,1.81-12.52,3.39-12.76,14.21-.67,30.32-.92,60.65-1.38,91a93.16,93.16,0,0,1-.69,13c-.92,5.82-4.12,9.09-8,8.69-4.84-.51-6.7-4.11-7.29-8.29a96.45,96.45,0,0,1-.89-12.94c-.22-27.66-.18-55.33-.56-83-.12-9-1.4-17.91-1.84-26.88-.26-5.3.06-10.63.14-15.95.18-11.65.39-23.31.54-35,.07-4.94-1.92-8.31-7.2-9.17a15.35,15.35,0,0,1-4.75-1.47,7.46,7.46,0,0,1-1.32-12.49,8.33,8.33,0,0,1,3.51-1.79c4.87-1,11.35-1,11.89-7.05.71-8.1-.27-16.43-1.35-24.56-.23-1.75-3.77-3.92-6.09-4.39-8.19-1.68-12.08-7.42-15.58-14.19-7.78-15.1-15.85-30-23.9-45-1.26-2.33-2.61-4.88-4.61-6.45a10.63,10.63,0,0,0-6.93-2.14c-.92.09-2.14,3.79-2.1,5.82.12,6.32.89,12.63,1.18,19,.24,5,.83,10.33-4.86,13.05-4,1.93-8.74-.08-13.32-6.39-4.11-5.63-7.45-11.83-11.19-17.73-5-7.82-9.7-15.82-17.69-21.33-5,3.24-4,7.94-4,12,.16,16,.72,32,.91,48a65.8,65.8,0,0,1-1.12,13.89c-1.27,6.21-5.14,9.8-9.63,10.11-4.83.33-10.22-3.28-11.42-9.39a77.69,77.69,0,0,1-.89-18.8c1.23-22.63,2.76-45.24,4.3-67.85.62-9.15,0-18-4.68-26.16a18.62,18.62,0,0,1-2.14-6.6c-1.27-9,5.21-15.61,14.32-14.66,6.9.72,11.52,4.95,15,10.5,7.65,12.12,15.1,24.36,22.74,36.48,2.59,4.1,4.73,10.59,10.52,8.92,6.27-1.81,3.22-8.51,3.14-13.06-.22-11.81-2.33-23.3-9.3-33.23-8-11.36-5.35-27.56,9-37.31,5.78-3.94,12-3.34,15.5,2.74a36.4,36.4,0,0,1,4.71,15c.8,11.83,3.87,22.9,8.18,33.84,10.74,27.28,21.21,54.68,31.91,82,2.26,5.76,5.07,11.31,8.49,18.84,1.78-3.58,3.06-5.08,3.23-6.68.4-4,.38-8,.39-12,.07-25.67.07-51.34.18-77a77,77,0,0,1,.73-11c.52-3.48,2.13-6.61,6.21-6.69s5.86,3,6.3,6.5a105.68,105.68,0,0,1,.8,13q.18,57,.21,114c0,20.38,0,20.65,20,22.43,17.59,1.57,35.26,2.27,52.87,3.64q19.92,1.54,39.79,3.84c9.23,1.08,10.53,2.73,10.86,11.05.45,10.94-.73,12.4-10.09,15.13-17.58,5.13-35.13,10.38-52.59,15.93-3.86,1.23-7.27,3.88-10.88,5.88Zm3.91-32.64c-5-.66-8.11-1.5-11.16-1.38-8,.29-15.95.73-23.87,1.61-15.58,1.73-17.13,3.78-16.11,19.63,0,.67,0,1.34.11,2,.84,5.86,3.18,7.41,8.89,5.6a29.45,29.45,0,0,0,6.31-2.94c9.94-6,19.85-12.13,29.67-18.37C822.07,357.19,823.36,355.32,826.46,352.17Z" transform="translate(-35.48 -21.08)"/><path class="cls-1" d="M430.77,266.49c1.68-4.83,3.17-7.72,3.68-10.78,7.46-44.36,14.94-88.71,22.05-133.13,2.25-14.08.16-15.81-14.09-14.53-12.28,1.1-24.55,2.32-36.85,3.25-3.61.27-7.52.48-10.84-.63-2.4-.8-5.27-3.62-5.68-5.94s1.48-5.61,3.33-7.56c1.68-1.78,4.56-2.71,7.09-3.35a48.12,48.12,0,0,1,10.84-1.65c31-.53,61.87-2.41,92.91-2.09,51.8.54,103.1,6.3,154.52,11,13.92,1.28,27.77,3.5,41.62,5.52a31,31,0,0,1,10.42,3.14c1.93,1.08,4,4.16,3.8,6.14s-2.87,4-4.94,5.31c-1.56.94-3.87.88-5.84.86a108.66,108.66,0,0,1-11-.61c-39.07-4.32-78.08-9.44-117.24-12.8-26.53-2.27-53.26-2.25-79.91-2.93-9.75-.25-12.23,1.77-14.54,11.52-4.78,20.1-9.27,40.27-13.6,60.47-1.8,8.4-.52,9.89,7.61,11.71,3.57.79,7.1,1.8,10.68,2.59,7.19,1.58,9.11.17,9.1-7.37,0-5.31-1.27-10.67-.91-15.94s1.07-10.76,3.37-15.29c4.57-9,12.95-10.47,20.88-4.25a59,59,0,0,1,9.64,10.07c10.48,13.38,20.93,26.79,31,40.48,5.86,8,12.55,14.6,21.62,18.76a51.65,51.65,0,0,1,8.62,5c8.33,6,10.24,12.23,5.74,21.58-2.48,5.15-2.23,9.54.55,14.13s5.72,9,8.36,13.63c4,7,4,12,.27,14.41s-8.48.56-13.4-5.75a185,185,0,0,1-10.61-15.73c-20.54-33-18-28-52.08-35.54-10.73-2.36-13.07-.26-13.7,10.8-.44,7.65-.37,15.33-.8,23-.19,3.29-.37,6.91-1.85,9.69-1.19,2.24-4.35,4.79-6.59,4.74s-5.33-2.74-6.36-5c-1.44-3.2-1.7-7.1-1.8-10.71-.31-12-.3-24-.45-36-.15-12.21-1.6-14.16-13.2-17.74-4.14-1.27-8.34-2.35-12.48-3.64-4.65-1.45-7.81-.14-9.28,4.66a14.48,14.48,0,0,0-.61,1.9c-4.24,24.94-8.66,49.85-12.55,74.85-1.17,7.5-.7,15.25-1.22,22.87-.41,6.1.5,7.84,6.53,9,6.64,1.29,12.89,1.84,18.24-4.41,4.46-5.2,7-4.54,13.18-1.36,4.3,2.23,9.05,4.44,13.77,4.92,17.9,1.79,35.87,2.83,53.81,4.25a107,107,0,0,1,13.85,1.77c4.12.89,7.64,3.19,7.44,8.07s-3.86,6.82-8,7.69a94.31,94.31,0,0,1-11.86,1.55c-17.6,1.39-35.23,2.45-52.81,4.08-12.77,1.18-13.8,2.6-14,15.59-.23,14.67-.25,29.33-.51,44a52.1,52.1,0,0,1-1.23,10.86c-.89,3.79-3.36,7.37-7.56,6.32a11.15,11.15,0,0,1-6.66-6.21c-1.44-3.94-1.51-8.49-1.61-12.79-.38-16-.49-32-.8-48-.25-12.76-.92-13.32-14.05-12.95-9,.26-18,.79-27,.62a37.48,37.48,0,0,1-12.6-2.46c-4.88-1.89-8.09-8.44-7.29-13.12.9-5.24,5-6.53,9.41-7.61,3.09-.76,6.13-1.71,10.34-2.91-2.18-5-3.63-9-5.57-12.73-8.31-16-16.83-31.81-25.13-47.78a73.46,73.46,0,0,1-5-12c-1.27-4.08-.57-8.1,3.39-10.59s7.8-.93,10.83,2.05a58.59,58.59,0,0,1,6.31,7.71c3.72,5.13,7.11,10.49,11,15.5C424.42,261.21,427.05,263.06,430.77,266.49Z" transform="translate(-35.48 -21.08)"/><path class="cls-1" d="M647.52,403.78a100.2,100.2,0,0,0,.59-10.51C647.56,381.63,647,370,646,358.36c-.93-11.33-3.28-13.42-14.29-15.55-4.18-.81-8.66-1.82-12.1-4.1-2.24-1.49-4.05-5.53-3.83-8.24.17-2.11,3.85-5.69,5.84-5.61,13.32.53,26.31-2.6,39.46-2.91,7.52-.18,15.09,2.25,22.67,3.28,14,1.91,26,8.2,36.52,17.29,9.67,8.37,10.64,16.92,3.22,27.29-4.45,6.22-9.68,11.87-14.41,17.89-2,2.53-3.56,5.37-6.37,9.67,4,.52,6.43,1.17,8.78,1.06,4-.17,7.93-1.1,11.9-1.2,4.9-.13,9.39,1.17,11.33,6.38,1.57,4.23-.69,8.88-6.26,12.32-3.38,2.09-7.16,3.53-10.74,5.29-10.76,5.26-21.57,10.44-32.25,15.87a103.24,103.24,0,0,0-10.07,6.49c-7.22,4.83-10.49,11.4-10.38,20.28.3,22.32.14,44.64,0,67a143.86,143.86,0,0,1-1,15.94c-.45,3.78-2,7.37-6.64,7.42-4.41.05-6.54-3.14-7.22-7a70.83,70.83,0,0,1-1-11.91c-.17-21-.3-42-.25-63,0-6.89-1.08-13-5.9-18.48-5.39-6.08-5.28-13.32-2.76-20.73,1.45-4.29,2.66-8.66,4.28-14-3.53-.28-5.72-.75-7.85-.56-15.59,1.36-31.16,2.89-46.74,4.29a17.22,17.22,0,0,1-6-.19c-14-3.82-27.81-.71-41.69.54-6.39.58-10.57,3.49-12.19,9.87-.49,1.92-.94,4.28-2.27,5.45-2.3,2-5.47,4.79-7.91,4.47s-4.86-3.76-6.61-6.3c-1-1.47-1-3.86-.92-5.83.08-5.38-1.93-8.79-7.53-10.08a12.29,12.29,0,0,1-5.76-3.68c-4.76-5.15-3.14-11.86,3.39-14.51a18.73,18.73,0,0,1,5.82-1.32c5.89-.36,9.24-3.57,10.25-9.12,2-11.08,4.08-22.17,5.53-33.33.88-6.74,4.46-10.77,11.08-9.35a25.1,25.1,0,0,1,11.4,5.63c9.51,8.8,19,17.72,27.43,27.54,6.53,7.62,13.79,12.19,23.77,12.7,5,.25,9.94,1,14.91,1.49,11.22,1.06,22.82.34,32.46,8.44Zm19.54.83c2-.76,3.63-.86,4.26-1.69,9.78-13,19.67-25.93,29-39.26,3.12-4.47,1.64-8.59-3.89-10a71.23,71.23,0,0,0-20.52-2.12c-8.39.34-10.48,2.92-10.67,11.25-.26,11.3-.13,22.61.07,33.92C665.34,399.13,666.35,401.57,667.06,404.61Z" transform="translate(-35.48 -21.08)"/><path class="cls-1" d="M805.5,230.17c-.48,3.71-1.46,7.44-1.36,11.13.31,11.66,1.12,23.3,1.53,34.95a54.62,54.62,0,0,1-.62,11.93c-1.08,5.71-4.59,8.86-9.11,9.21-4.9.37-9.14-2.66-11-8.43a27.36,27.36,0,0,1-1.34-8.83c.82-29.61.06-59.35,6.36-88.57.35-1.63.58-3.3,1.08-4.87,3.25-10.07,10.82-11.73,17.88-3.95,2.65,2.92,5.21,5.92,7.85,8.85.15.18.62.08,2.36.24.9-3.72,2.47-7.66,2.73-11.68,1.6-24.26,2.86-48.54,4.31-72.81a114.74,114.74,0,0,1,1.42-13.87c.64-3.47,2.88-6.14,6.8-6.22,4.52-.09,6.47,3,7.2,6.91a48.53,48.53,0,0,1,.79,8.93c0,34.66.16,69.32-.21,104-.08,6.86-2.2,13.7-3.31,20.55-.63,3.91-1.31,7.83-1.64,11.77-.35,4.16-.91,8.2-5.31,9.92-4.75,1.84-8.49-.55-11.46-4-2.38-2.76-4.2-6-6.46-8.87-1.92-2.44-4.1-4.68-6.17-7Z" transform="translate(-35.48 -21.08)"/></svg>