<svg id="Layer_1" data-name="Layer 1" xmlns="http://www.w3.org/2000/svg" viewBox="0 0 1547.4 1669.97"><defs><style>.cls-1{fill:#fff;}</style></defs><title>title</title><path class="cls-1" d="M233.58,904.86c-18,1.17-35.93,2.18-53.87,3.6A115.21,115.21,0,0,0,159,911.71c-9.47,2.55-12.48,6.64-12.77,16.57-.59,19.65-.7,39.32-1.25,59-.3,10.65-.84,21.31-1.81,31.92a34,34,0,0,1-3.51,12.39c-5,9.66-16.4,9.87-21.15.11a41.16,41.16,0,0,1-3.87-17.3c-.09-16,.72-32,1.27-48,.41-11.66,1.23-23.31,1.4-35,.17-11.28-2.41-14.11-13.59-15.6-10.57-1.41-21.22-2.26-31.77-3.74a174.19,174.19,0,0,1-21.52-4.25A29,29,0,0,1,40,902.29c-10.13-8.38-9.09-20.44,3-25.53,8.1-3.4,17.26-4.75,26.09-5.81,11.56-1.4,23.3-1.17,34.88-2.45,12.55-1.4,15.88-5.54,16.53-18.22.11-2.33.12-4.67.15-7q1.26-96.48,2.55-193c.27-17.66.93-35.32,1.71-53a125.69,125.69,0,0,1,2.35-19.83,57.51,57.51,0,0,1,5.37-14.94c2.78-5.29,7.55-8.55,13.94-7.88s10,4.92,12,10.63a37.91,37.91,0,0,1,2.05,9.75c1,15.59,6.59,29.79,12.73,43.92,19.59,45.07,44.26,87.36,69.46,129.42q29.54,49.3,57.75,99.41c6.64,11.79,15.21,18.91,28.86,19.89,30.9,2.21,61.77,4.87,92.68,6.88,64,4.17,128,.86,191.9-1,59.63-1.7,119.23-4.6,178.84-6.85,8.65-.32,17.35-.29,26,.24,9.69.59,13.44,3.61,13.91,9.85.52,6.87-3.16,10.93-12.44,12.85a100.7,100.7,0,0,1-15.85,2c-53.94,2.38-107.88,4.84-161.83,6.88-70.94,2.68-141.91,4.69-212.83,7.66-24.62,1-49.14,4.08-73.71,6.25a31,31,0,0,0-5.9,1c-6.29,1.84-8.26,5-6.41,11.17a56,56,0,0,0,4.46,10q26.21,49.49,52.54,98.9c1.25,2.35,2.68,4.61,3.95,7,7.91,14.52,19.53,22.11,36.56,23.85,61.4,6.3,122.91,9.74,184.63,9.92,6,0,12.07,0,17.92,1,17,3,22.89,15.13,14.37,30.11-4.1,7.2-9.28,13.82-14.27,20.48-25,33.36-49.44,67.14-70.18,103.34C555,1261.94,537,1295,519.21,1328.19c-31.91,59.65-63.32,119.58-95.12,179.29-6.65,12.49-11.93,25.31-13.7,39.42a77.59,77.59,0,0,1-15.88,38.26c-6.23,8.16-10.75,17.61-16.19,26.39-5.59,9-11.13,18.12-17.19,26.83a34.83,34.83,0,0,1-9.37,8.81c-5.08,3.35-10.72,3.33-16.11.17s-8.17-8.17-7.1-14.27c.95-5.49,2.31-11.21,4.91-16.07,16.43-30.68,28.38-63.21,40.13-95.82,6.29-17.44,8.28-35.73,9.18-54,1.54-31.62,3-63.26,3.45-94.91,1.37-87,2.22-174,3.31-261a105,105,0,0,1,.57-14c2.58-17.63-2-33.58-10.26-49-18.16-33.75-36-67.66-54.06-101.49-5-9.41-10.22-18.72-15.3-28.09-5.8-10.72-14.38-15.65-26.92-15.13-16.63.69-33.32.17-50,.17ZM414,1461.73l3.17.47c2.22-3.1,4.83-6,6.59-9.34,31.31-59.19,62-118.73,93.9-177.57,27.64-50.94,56.7-101.11,85.09-151.63a73.71,73.71,0,0,0,5.75-11.61c1.82-5.26-.09-8.48-5.55-9.48a58.88,58.88,0,0,0-12.93-.81q-57.4,2.31-114.78,5a137.67,137.67,0,0,0-21.78,2.82c-6.95,1.47-8.73,5.16-6.6,11.78a76.82,76.82,0,0,0,3.6,8.23c3.18,7,6.73,13.79,9.49,20.92,3.88,10,2.57,15-3.91,18.14-5.88,2.85-10.67.91-16.45-7.32-4.2-6-7.81-12.4-11.93-18.46-2.34-3.45-4.34-7.62-9.63-7.87-4.71,4.35-3.36,10-3.44,15.08q-2.08,140.4-3.91,280.81c-.09,7,0,14,.56,21C411.49,1455.17,413,1458.43,414,1461.73ZM155,673.84c-6.71,7.73-5.75,15.31-5.87,22.41q-1.2,73.41-2,146.82c-.22,17.91,2.11,20.77,20,22.81,20.83,2.36,41.72,4.32,62.62,6.11,13.26,1.14,26.57,2,39.87,2.34,10.88.32,13.13-3.43,8.66-13.51-2.15-4.86-4.75-9.53-7.35-14.18C239.37,790.14,203.63,736.38,165,684.53,162.32,680.93,158.85,677.92,155,673.84Z" transform="translate(-33.09 -27.78)"/><path class="cls-1" d="M850.85,588.4c3.17,3.48,5.42,5.86,7.57,8.34,1.52,1.75,3.66,3.43,4.17,5.48.74,3,1.45,7.14,0,9.14s-5.9,3.15-8.71,2.71c-3.78-.59-7.48-2.72-10.84-4.79-15-9.24-29.83-18.92-45-28-19.4-11.69-39-23-58.59-34.43q-20.31-11.8-40.8-23.3c-15.92-8.95-16.36-1.77-16.38,9.56,0,37-.47,74-.89,111a59.29,59.29,0,0,1-1.55,12.87c-1.69,7.16-6,11.07-11.19,10.94-5.45-.14-10.16-5-11-12.34a97.6,97.6,0,0,1-.08-16c1.34-25.63,3-51.24,4.17-76.87.64-13.64,0-27.36,1-41,1-13.15-4.61-21.31-15.78-27.28-30-16-59.47-33-89.71-48.47-29.34-15.06-59.32-28.9-89.12-43.05a149.45,149.45,0,0,0-21.41-8.29c-6.32-1.88-9.42.6-10.24,7.18a91.39,91.39,0,0,0-.34,11c0,41,.08,82-.08,123,0,11.66-.71,23.31-1.35,35-.25,4.53-.31,9.44-5.43,12.28-5.32-1.74-5.46-6.49-5.74-10.56-.71-10.3-1.2-20.63-1.24-31-.14-45.66-.07-91.32-.13-137a104.9,104.9,0,0,0-.63-14c-.91-6.65-3.95-9.68-10.55-9.69a90.11,90.11,0,0,0-16.79,2.05c-4.36.83-6.89,4.1-7.54,8.38-.75,4.93-1.18,9.92-1.46,14.9-3.51,63.88-6.79,127.78-10.6,191.65-.95,15.93-3.24,31.82-5.62,47.63a53.8,53.8,0,0,1-5.93,17.87c-5.85,10.53-17.41,11.53-24.46,1.78-4.57-6.33-7.72-14-10.07-21.53-9.87-31.54-17.95-63.58-21.61-96.46-2.79-25.14-5.19-50.43-5.66-75.7-1.25-68-1.41-136-1.91-203.95a207.74,207.74,0,0,1,.85-23.94c1-9.39,5.51-14.62,11.09-14.5,5.17.12,9.33,5.11,10.41,14a178.39,178.39,0,0,1,1,21.94q-.15,99.48-.5,199A576.88,576.88,0,0,0,333,579.26c1.43,7.18,3.25,14.3,5.3,21.33.85,2.92,2.77,5.54,4.41,8.68,5.67-3.72,6-8.71,6.63-13.06,3.31-22.41,7.27-44.78,9.11-67.32,2.95-36.2,4.73-72.49,6.45-108.77q4-85.36,7.3-170.75c1.41-37.63,1.95-75.29,3.11-112.93,1-31.31,2.27-62.6,3.44-93.9.06-1.67.14-3.34.35-5,1.08-8.09,9.25-12.39,16.09-8,1.79,1.14,3.06,4.31,3.18,6.63.25,4.62-.56,9.29-.76,14-.92,21-2,42-2.6,62.93-1.67,57-3.11,113.93-4.71,170.89-.4,14.32-1.12,28.63-1.63,42.95a40.84,40.84,0,0,0,.2,8c.76,4.8,3.15,6,7.88,4.36,16.27-5.62,25.36-17.89,25.4-35.36.14-55.32.06-110.65.08-166a111.25,111.25,0,0,1,.28-12c1-8.95,5.91-13.91,14.88-14.55a53.39,53.39,0,0,1,12.92.84,474.33,474.33,0,0,1,157.59,58.31,69.11,69.11,0,0,1,16.86,13.88c12.25,14,12,29.86-1.46,42.79a182.93,182.93,0,0,1-29.84,23.27c-46.09,28.75-92.55,56.9-138.86,85.29-3.13,1.91-6.43,3.64-9.19,6-4.32,3.68-4.28,7.09-.23,11a40.69,40.69,0,0,0,5.61,4.15c45.19,30.84,91.72,59.43,140.66,84,14.58,7.32,28.62,15.73,42.9,23.65l2.6,1.49c15.69,8.82,18.36,7.67,19.87-10.7,2.2-26.89,4.13-53.83,5.34-80.78.87-19.3.36-38.65.45-58,0-1.67,0-3.34-.08-5-.61-12.49-3.65-14.5-14.69-9.42q-56.76,26.13-113.48,52.32a111,111,0,0,1-17.65,6.88,32,32,0,0,1-13.76.63c-7.89-1.53-10.28-9.69-4.31-15.13,3.8-3.46,8.91-5.73,13.74-7.79,38.3-16.36,76.71-32.48,115-48.82,7.65-3.27,15-7.38,22.57-10.73,7.93-3.48,11.71-9.57,12.22-17.91.34-5.65.21-11.33.62-17a46.94,46.94,0,0,1,1.82-10.77c1.27-4,4.16-7.73,8.63-6.78,3.08.66,5.88,3.66,8.26,6.13,1.24,1.28,1.31,3.7,1.91,5.61,2.82,9,4.8,10.47,13.73,6.71,23.32-9.81,46.83-19.34,69.49-30.53,36.79-18.17,67.61-44.9,98.34-71.58,5.28-4.59,10.28-9.51,15.7-13.93,7.57-6.17,14.21-7.23,17.91-3.36s2.49,10.49-4.85,17.34c-12.41,11.59-25.24,22.75-38,33.93-36.31,31.74-76.87,57.31-118.17,81.88-14.87,8.85-29.19,18.64-43.67,28.14-6.62,4.35-9.68,10.66-9.74,18.64-.44,57.68,0,115.3,5.82,172.78,1.28,12.51,6.17,21,17.37,26.94,17.1,9,33.85,18.67,50.51,28.45,20.12,11.8,40,24,60,36,4.73,2.86,9.3,6.17,16.17,7.2-.57-3.27-.67-5.5-1.37-7.53-16-46.43-26.86-94-34.73-142.54-8.17-50.38-6.5-101-8-151.58A96.08,96.08,0,0,1,791,258.89c1.18-7.9,4.8-12.11,9.66-12.28,5.2-.18,9.38,4.26,10.76,12.43A98.57,98.57,0,0,1,812.69,275c0,24.66-.19,49.32-.14,74,.11,47.88,6.62,95,17.64,141.51,3.76,15.89,8.28,31.6,12.55,47.36a45.8,45.8,0,0,0,3.4,9.37c3,5.77,7.32,6,10.15,0A62.77,62.77,0,0,0,861.35,530c4.11-26.79,3.43-53.73,2.85-80.78-.89-41-.13-81.95-.14-122.94q0-39-.3-77.95c0-6.66-.79-13.31-.85-20a37.6,37.6,0,0,1,1.29-9.84c1-3.74,3.32-6.7,7.52-7,4.39-.35,6.85,2.69,8,6.25a44,44,0,0,1,2.63,12.64c.74,31.63,1.88,63.28,1.55,94.91-.5,49-1.4,97.92,1.61,146.89,1.35,21.88.7,44-.63,65.87-.56,9.32-4.46,18.7-8.14,27.51a34.75,34.75,0,0,1-19.6,19C855.42,585.35,853.87,586.58,850.85,588.4ZM436.16,227.52q0,36.48,0,73a63.46,63.46,0,0,0,.59,10.95c1.18,6.59,4.46,8.14,10.81,5.57a26.47,26.47,0,0,0,3.54-1.85c37.5-22.33,74.91-44.81,110.41-70.27,12.44-8.92,25-17.8,36.73-27.6,16-13.38,15.13-22.36-2.75-32.77a374.58,374.58,0,0,0-100.63-40.66c-14.53-3.53-29.49-5.39-44.33-7.39-11.18-1.51-13.86,1.14-14.32,12.11-.13,3-.08,6-.08,9Q436.15,192.54,436.16,227.52Z" transform="translate(-33.09 -27.78)"/><path class="cls-1" d="M1490.44,1532.62c1.51-4.25,3.56-8.39,4.45-12.77,8.69-42.77,16.77-85.67,25.85-128.36,7.89-37.14,16.7-74.09,25.47-111,1.27-5.37,4.11-10.56,7.1-15.28,3.45-5.47,9-7.84,15.56-6.75s9.42,6.2,10.25,12a131.41,131.41,0,0,1,1.34,20.88c-1.3,68-2.88,135.92-4.19,203.88-1.17,61-2.11,122-3.19,182.92-.07,4-.37,8-.75,12-.44,4.7-3.31,7.14-7.89,7.47a55,55,0,0,1-9,0c-7.79-.75-9.85-2.67-10-10.78-.19-10.65.25-21.32.46-32,1.08-55.29,2.25-110.59,3.18-165.89.11-6.45.65-13.29-3.82-19.19-4.92.59-6.14,4.28-7.21,7.62-4.57,14.27-9.8,28.4-13.18,43-9.66,41.55-18.47,83.28-27.78,124.91a125.4,125.4,0,0,1-6.19,21c-3.35,8-9.55,11.48-16.38,10.46-7.75-1.16-11.32-6.69-12.83-13.57a152.38,152.38,0,0,1-2.25-16.82c-3.44-33.14-6.76-66.28-10.28-99.41a182.33,182.33,0,0,0-3.15-18.72c-.66-3.05-2.21-5.91-3.31-8.74-6.25.69-7.24,5.09-8.53,8.59-4.12,11.26-8.46,22.49-11.56,34-10.54,39.26-20.61,78.65-30.78,118-3.68,14.24-8.41,17.37-22.79,14.62-5.4-1-6.67-2.75-6-8.23.12-1,.4-2,.62-2.94q19.15-86.36,38.33-172.72c4.2-18.87,8.42-37.73,12.94-56.52a255.75,255.75,0,0,1,7.36-24.9,41.15,41.15,0,0,1,6.66-12.18c8.87-10.93,22.13-9.71,28.37,2.86,2.91,5.86,4.41,12.54,5.84,19,5.41,24.4,10.5,48.87,15.77,73.3a75.87,75.87,0,0,0,3.14,11.56c1.25,3.19,3.36,6,5.09,9Z" transform="translate(-33.09 -27.78)"/><path class="cls-1" d="M1013,1643.29c-.21-8,2.84-14.93,6.29-21.92a179.66,179.66,0,0,0,10.41-24.78c3.27-10.2,1.39-12.62-8.56-16.39-4.93-1.86-10.05-3.89-14.2-7-9.1-6.86-9.86-16.69-2-25.07a49.32,49.32,0,0,1,11.94-8.85c5.79-3.26,12-5.79,18-8.62,11.14-5.23,18.91-13.45,22.49-25.36,4.23-14,8.86-28,12.52-42.16,9.58-37.13,20.51-73.84,33.59-109.9,8.33-23,13.48-46.66,17-70.84,1.32-9.11,4.34-18.1,7.6-26.77,2.82-7.49,7.3-10.15,12.58-9.25,6.75,1.16,9.06,6.32,10,12.18,3,18.08,5.65,36.21,8.69,54.29,6,35.81,12.3,71.58,18.34,107.39,1.77,10.51,2.79,21.15,4.67,31.64,2.22,12.4,5.83,14.65,18,11.11a651.89,651.89,0,0,0,89.88-33.43c31.5-14.44,62.72-29.47,94.12-44.12a89.34,89.34,0,0,1,15.81-6c6.25-1.58,11.72,1,13.73,5.49,2.42,5.44.28,10.14-3.87,13.34a134.58,134.58,0,0,1-19.11,12.57c-24.48,12.88-49.34,25-73.73,38.07-35.83,19.18-71.38,38.9-107,58.43-2.62,1.44-5.1,3.15-7.59,4.82-6.7,4.5-10.07,10.77-8.77,18.8,5.27,32.52,8.52,65.51,20.61,96.54,2.95,7.56,2,14.46-1.65,21.12-5.1,9.37-16.06,10-21.83,1a45.92,45.92,0,0,1-6-15.69c-2.81-14.36-4.78-28.89-7.28-43.31-2.84-16.42-5.89-32.8-8.85-49.19-.17-1-.3-2-.49-3-2.85-14.94-6.73-17.11-20.29-10.69-22.28,10.57-44.39,21.48-66.66,32-14.55,6.89-23.95,17.5-26.63,33.77-1.94,11.81-4.33,23.55-6.74,35.28a158.25,158.25,0,0,1-4.86,19.32,27.83,27.83,0,0,1-6.23,10.08c-7.47,7.68-19,5-22.41-5.16C1013.43,1650,1013.45,1646.57,1013,1643.29Zm145-168.36c-.57-3.33-1.42-9.6-2.78-15.76-2.85-13-5.7-26-9.06-38.86s-7.23-25.59-11.11-38.31a39.54,39.54,0,0,0-4.57-9.92c-2.85-4.4-6.48-4.29-9.43.13a29.8,29.8,0,0,0-3.85,8.07c-11.19,38.64-22.44,77.26-33.24,116-2.62,9.42,1,13.22,10.25,10.87,18.36-4.64,36.53-10.07,54.67-15.51C1155.32,1489.71,1158.39,1484.73,1158,1474.93Z" transform="translate(-33.09 -27.78)"/><path class="cls-1" d="M553.41,1375.51c2.34-5.76,3.77-12.14,7.2-17.14,6.07-8.85,7.57-18.17,6.7-28.48-1-12.27-2.23-24.58-2.2-36.87,0-22.67,10.12-33.89,32.73-36.2a329.06,329.06,0,0,1,40.93-1.66c35.8.79,71.18-3.94,106.6-7.75,12.85-1.38,25.42-5.32,38.18-7.73a87.83,87.83,0,0,1,17.83-1.79,23.69,23.69,0,0,1,11.25,3.35c7.38,4.42,8.79,12.17,3.28,18.74a51.06,51.06,0,0,1-12.1,10.29c-43.94,27.11-86.94,55.91-134.84,76-5.83,2.45-11.5,5.32-17.1,8.27-11,5.8-11.55,10.34-1.28,16.82,20.56,13,40.78,26.76,62.4,37.71,33.27,16.86,67.47,31.9,101.51,47.18,26.14,11.74,52.76,22.4,78.92,34.09,9.07,4.06,17.44,9.71,26,14.79a17.75,17.75,0,0,1,4.36,4.08c3,3.57,4.27,7.63,2,12a9.29,9.29,0,0,1-10,5.2c-6.16-1-12.48-2.3-18.17-4.78-29.94-13-59.42-27.16-89.58-39.67-56.33-23.37-113-46-169.6-68.65a115.35,115.35,0,0,0-24-6.55c-10.38-1.7-14.71,2.39-13.37,12.86,1.81,14.2,5,28.21,7.06,42.39,4.23,29.34,8.14,58.73,12,88.13a65.89,65.89,0,0,1,.17,14c-.39,4.53-.5,10.3-6.47,10.95-5.22.56-7.06-4.37-8.43-8.49a113.34,113.34,0,0,1-4.57-16.34c-4.43-25.28-8.47-50.62-12.85-75.9-3.23-18.71-6.86-37.36-10.12-56.08-1.49-8.56-4.81-15.66-12.14-21C558.66,1392.24,554.55,1385.1,553.41,1375.51ZM711.12,1281c-6.85-4.34-12.86-2.71-18.63-2.18q-29.84,2.68-59.66,5.71c-10.27,1-20.57,2-30.76,3.57-11.15,1.78-15,6.44-14.56,17.72.3,8.64,1.34,17.26,2.33,25.86,2,17,6.23,19.7,21.17,11.85,25.06-13.16,49.87-26.81,74.58-40.63,6.64-3.71,12.7-8.56,18.67-13.34C706.85,1287.48,708.55,1284.27,711.12,1281Z" transform="translate(-33.09 -27.78)"/><path class="cls-1" d="M1340.57,297.65c.48-24.7,4.15-57.72,14.46-89.74,16-49.53,49.24-82.83,96.8-102.47a48.53,48.53,0,0,1,16.48-3.73,52.22,52.22,0,0,1,17.53,2.56c6,1.93,10.13,6.63,10.46,13.35.36,7.09-4.48,10.76-10.17,13.4a48.28,48.28,0,0,1-8.52,2.8c-30.93,7.67-55.88,24.38-75.19,49.64a106.74,106.74,0,0,0-15.85,29.87c-11.94,34-16.15,69.33-17.1,105.12-.56,20.54,6.39,39.31,15.21,57.41,6.67,13.69,19,17.09,32.84,15.61A67.63,67.63,0,0,0,1455.45,375c19.21-16.76,32.37-37.88,42.91-60.75,4.31-9.37,7.89-19.07,11.94-28.57,4.38-10.25,7.08-20.85,6.54-32-.45-9.29-5.23-12.31-13.17-7.33-8.12,5.08-16.26,10.81-22.66,17.83-16.42,18-37.77,28.18-58.76,39-8.92,4.6-16.06,3.63-20.12-1.62s-3.37-14.08,3.31-20.91A98.33,98.33,0,0,1,1424.72,265a135.57,135.57,0,0,0,32.2-26.59,149.66,149.66,0,0,1,50-37.45c6-2.77,11.65-6.44,17.51-9.59,3.51-1.89,7-4,10.73-5.24,11-3.56,20.09,1.38,23.17,12.5a61.66,61.66,0,0,1,1.79,10.83c4.21,46.41-7.07,88.45-35,126-6.12,8.25-10.9,17.51-16.16,26.39-12,20.34-26.66,38.38-47.42,50.37-18,10.39-37.13,16.32-58.32,12.8-19.08-3.17-32.93-13.23-42.28-30.16C1346.94,369.42,1340,340.2,1340.57,297.65Z" transform="translate(-33.09 -27.78)"/><path class="cls-1" d="M940.51,362.28c-1.64,6.29-3.33,10.59-3.78,15-.76,7.61-.93,15.29-1,22.95-.28,23.32-.22,46.65-.69,70A96,96,0,0,1,932.39,490c-1.57,6.67-5.83,10.06-10.79,10.18-5.33.14-10.12-3.67-11.71-10.45a52.69,52.69,0,0,1-1.17-13.85c.69-17.65,2-35.27,2.52-52.92,1.15-40,2-79.93,2.92-119.9.05-2.33.11-4.67,0-7-.6-12.24,5.05-20.88,15-27.49C943,259.33,958,253.05,974.43,251c11.53-1.46,23.23-1.61,34.87-2a45.26,45.26,0,0,1,10.89,1.32c15.74,3.35,24.65,15.1,23.16,31.15-.46,4.89-2.2,9.7-3.77,14.41-1,3.13-2.95,6-4.25,9-3.08,7.28-1.68,9.49,6.43,10.13,3,.23,6,.14,9,.11,12.66-.1,25.32-.47,38-.3,35,.46,70,1,104.93,1.88a110.25,110.25,0,0,1,22.71,3.09c10.75,2.58,15.77,8.32,14.47,14.87-1.21,6.12-7.69,9.92-17.84,9.43-12-.58-23.92-1.79-35.87-2.85-19.3-1.72-21-.36-20.93,18.66,0,23.32.19,46.65.33,70,0,3.66.16,7.33.4,11,.79,12,3.56,14.85,15.75,16.33,4.29.52,8.68.54,12.91,1.39a58.1,58.1,0,0,1,12.33,3.8c3.76,1.7,6.77,4.7,6,9.39-.78,4.5-4.28,6.6-8.38,7.54a28.26,28.26,0,0,1-6.94.55c-20.31-.58-40.63-1-60.92-2a187.67,187.67,0,0,1-24.73-3.15,23.54,23.54,0,0,1-9.87-4.46c-6.67-5.19-5.27-13.79,2.85-16.26,4.29-1.3,9.2-.95,13.8-.73,12.38.59,14.68-.78,15.91-13.38q3.78-38.79,6.62-77.67c1-13.35-1.94-16.59-15.57-17.74-22.24-1.86-44.53-3.17-66.8-4.58-10.31-.65-20.68-.57-30-6.17-3.89-2.32-7.88-1.15-11.27,1.32-5.92,4.31-11.89,8.6-17.39,13.42-6.61,5.79-7.12,8.66-2.84,16.6,6.79,12.61,13.69,25.19,21.15,37.41,18.75,30.71,37.9,61.17,56.75,91.83a96.35,96.35,0,0,1,8.09,15.95c1.71,4.5,1.31,9.36-3.32,12.51-3.52,2.39-8.32,1.53-12.6-2.8a78.35,78.35,0,0,1-8.65-10.94c-22.76-33.28-45-66.92-68.34-99.78-10.37-14.61-22.87-27.72-34.47-41.45C945.74,366.34,944.05,365.27,940.51,362.28Zm-.8-8.24c6.89-5.7,11.57-11.34,17.57-14.2,18.92-9,32.45-24,45.8-39.25a55.83,55.83,0,0,0,9-14.23c3.55-8.06.24-13.6-8.32-13.51-21.23.21-41.67,3.68-59.31,16.93-5.15,3.86-8.45,8.54-8.41,15,.09,12.94.3,25.89.8,38.82C937,346.69,938.48,349.72,939.71,354Z" transform="translate(-33.09 -27.78)"/><path class="cls-1" d="M235.63,578.1c6.78-3.64,7.09-8.64,7.63-13.06,2.8-22.81,6.39-45.59,7.65-68.5,2.63-47.57,4.23-95.2,5.76-142.82q3.21-99.41,5.58-198.84c.29-12.26-1.19-24.56-1.74-36.85-.32-7.31-1-14.68-.41-21.93a53.61,53.61,0,0,1,4.42-16.25c2.47-5.7,7.73-8,13.92-7.89a12.71,12.71,0,0,1,12.29,8.67c1.6,4.27,2.91,9.09,2.6,13.55-.62,8.91-2.48,17.74-3.76,26.61-1.63,11.17-4.22,22.31-4.6,33.52-2.32,68.6-4.18,137.21-6.09,205.82-.89,32-1.32,64-2.37,95.93q-2.76,83.42-6.12,166.81a122.32,122.32,0,0,1-2.54,19.8c-1.28,6.17-4.62,11.32-11.52,12.29-6.53.92-10.44-3.46-13.82-8.18a24.65,24.65,0,0,1-3.26-6.17c-8.82-25.33-22.77-48.2-35.3-71.66-18.68-35-38.39-69.46-64.13-100-8.58-10.17-17.79-19.82-26.77-29.66a34.41,34.41,0,0,0-5.14-4.74c-5.24-3.82-8.63-2.56-9.81,3.92a68,68,0,0,0-.7,12c-.09,26.66,0,53.32-.17,80,0,9.33-.15,18.68-.82,28a45,45,0,0,1-3.16,14.52c-3.9,9-13.7,9.67-18.68,1.19A30,30,0,0,1,70.82,560c-.2-13,.47-26,.86-39,1.17-38,2.58-75.92,3.42-113.89.27-12.29-1.23-24.62-1.33-36.94a102.72,102.72,0,0,1,1.88-20.71c1-5.18,5-8.66,10.58-9.29,5.77-.66,9.42,2.61,11.93,7.34a45.81,45.81,0,0,1,3.59,8.23c6.42,21.41,18.57,39.68,30.93,57.95,20.89,30.91,41.78,61.85,61.74,93.36,11.75,18.55,21.65,38.27,32.5,57.4C229.48,569,232.51,573.23,235.63,578.1Z" transform="translate(-33.09 -27.78)"/><path class="cls-1" d="M863.29,1410.31a55.52,55.52,0,0,1-6.36,0c-8.59-1-12.25-8.79-7.67-16.11.35-.56.84-1,1.23-1.57,5.73-7.91,6.07-9.45.46-17.64-8.84-12.92-18.17-25.49-27.19-38.28a94.47,94.47,0,0,1-8-12.63c-5.28-10.9-2.72-21.17,7.26-28.12a58,58,0,0,1,15.08-7.62c22.82-7.35,45.67-14.61,68.71-21.23,52.5-15.1,105.12-29.75,157.66-44.72,7.67-2.19,15-5.43,22.73-7.59a83.74,83.74,0,0,1,16.57-2.84,9,9,0,0,1,9.49,6,9.27,9.27,0,0,1-2.84,10.91c-4.59,3.73-9.52,7.46-14.91,9.72a264.62,264.62,0,0,1-27.42,9.28c-38.64,11.44-77.59,21.91-115.93,34.28-29.44,9.5-58.28,21-87.12,32.23-17,6.67-17.74,10.75-6.91,25.42,3.75,5.09,7.63,10.1,11.34,15.23,5.59,7.72,13,11.21,22.51,9.88,8.57-1.2,17.11-2.6,25.64-4.1,9.51-1.68,18.94-3.88,28.49-5.25a61,61,0,0,1,15.86-.14,14,14,0,0,1,12.36,10.25c1.86,6.07.12,11.51-4.64,15.29a78.81,78.81,0,0,1-15.14,9.41c-8.42,4-17.22,7.16-25.82,10.77a38.58,38.58,0,0,0-7.11,3.6c-4.56,3.14-5.28,6.14-3.17,11.18,6.26,14.93,18.92,22.15,35.2,19.65,11.85-1.83,23.59-4.4,35.46-6a76,76,0,0,1,18.82-.18c6.34.76,11,4.74,12.74,11.2s0,12-5,16.21a57.41,57.41,0,0,1-11.58,7.66c-6.89,3.32-14.06,6.08-21.18,8.89a53,53,0,0,0-19.8,13.08c-8.15,8.71-14.65,9.89-24.88,3.8-8.23-4.89-16.24-6.63-25.68-4.55-9.23,2-13.63-.3-16.89-6.78-3.75-7.43-2.68-13,3.77-19.75,6.13-6.39,6.48-8.09,1.46-15.39-5.65-8.23-11.81-16.12-17.53-24.31C878.31,1412.16,872,1408.25,863.29,1410.31Z" transform="translate(-33.09 -27.78)"/><path class="cls-1" d="M1273.22,366.63c-6.09,4.87-5,10.26-4.78,15,1.62,28.27,3.64,56.51,5.4,84.77.29,4.62.73,9.41-.13,13.88-1.77,9.13-7.67,12-16.24,8.68-1.55-.6-3-1.48-4.53-2.11-13.9-5.73-16-8.87-15.14-23.93,1.29-22.29,2.74-44.57,4.13-66.85,2.76-43.95-.88-87.16-14.08-129.44a296.26,296.26,0,0,1-8.35-36,62.75,62.75,0,0,1-.06-18.81,12.5,12.5,0,0,1,10.2-11c6.15-1.3,10.44,2.1,13.18,6.95a75.11,75.11,0,0,1,6.18,14.67c6.84,21.95,13.27,44,20.19,65.95a174.53,174.53,0,0,0,8.6,21.27c1.43,3.05,4.18,5.47,6.09,7.89,5.48-1.87,4.93-5.61,5.09-8.76q2.07-40.92,3.93-81.87c.6-13,1.17-26,1.53-38.94.14-5-.28-10-.55-14.94-.11-2-.64-4-.76-6-.5-8.23,2.22-13.38,7.57-14.5s10.42,2.31,13.86,9.26c3.84,7.75,4.08,16,3.59,24.43-.57,9.64-.94,19.29-1.34,28.94-2.18,52.52,3.4,104.49,11,156.32.82,5.59,1.15,11.26,1.52,16.91a45.39,45.39,0,0,1-.23,8c-1.07,9.59-5.69,15.8-12.66,17.3s-13.07-2.34-18.09-11.15c-5.26-9.23-10.61-18.42-16.39-27.32C1279.88,372,1276.46,369.73,1273.22,366.63Z" transform="translate(-33.09 -27.78)"/></svg>